<svg id="_图层_1" data-name="图层 1" xmlns="http://www.w3.org/2000/svg" viewBox="0 0 114.67 68.55"><path fill="currentColor" d="M19.07 9.49c3 0 5.44 2.44 5.44 5.44v13.99h66.37v4.82H24.51v21.45h66.37v4.82H19.07V9.49Zm15.85 30.78c3 0 5.44 2.44 5.44 5.44v4.51c0 1.8-1.46 3.26-3.26 3.26h-4.51c-3 0-5.44-2.44-5.44-5.44v-2.33c0-3 2.44-5.44 5.44-5.44h2.33Zm26.34-3.8c4.53.59 6.74 1.45 8.85 2.23l.23.08c1.58.58 3.13 1.11 5.61 1.44 3.93.53 8.34 1.12 13.22 1.78v11.42H41.3V39.14c1.99-1.22 3.98-2.11 5.98-2.66 3-.83 5.9-1.06 13.99 0ZM34.92 14c3 0 5.44 2.44 5.44 5.44v4.51c0 1.8-1.46 3.26-3.26 3.26h-4.51c-3 0-5.44-2.44-5.44-5.44v-2.33c0-3 2.44-5.44 5.44-5.44h2.33Zm26.34-3.8c4.53.59 6.74 1.45 8.85 2.23l.23.08c1.58.58 3.13 1.11 5.61 1.44 3.93.53 8.34 1.12 13.22 1.78v11.42H41.3V12.87c1.99-1.22 3.98-2.11 5.98-2.66 3-.83 5.9-1.06 13.99 0Zm0 0" class="cls-1"/></svg>