<?xml version="1.0" encoding="UTF-8"?>
<svg id="_图层_1" data-name="图层 1" xmlns="http://www.w3.org/2000/svg" xmlns:xlink="http://www.w3.org/1999/xlink" viewBox="0 0 81.03 65.94">
  <defs>
    <style>.cls-1 {
  clip-path: url("#clippath");
}

.cls-2 {
  fill: none;
}

.cls-3 {
  fill: #231815;
}

</style>
    <clipPath id="clippath">
      <rect class="cls-2" x="13.64" y="6.88" width="54.12" height="53.85"></rect>
    </clipPath>
  </defs>
  <g class="cls-1">
    <path class="cls-3" d="m34.18,32.13h-15.89c-1.24,0-2.42-.49-3.3-1.37-.87-.87-1.37-2.06-1.37-3.3v-15.89c0-2.58,2.09-4.66,4.66-4.66h15.89c1.24,0,2.42.49,3.3,1.37.87.87,1.37,2.06,1.37,3.3v15.89c0,1.24-.49,2.42-1.37,3.3-.87.87-2.06,1.37-3.3,1.37h0Zm-15.89-22.11c-.41,0-.81.16-1.1.46-.29.29-.46.69-.46,1.1v15.89c0,.41.16.81.46,1.1.29.29.69.46,1.1.46h15.89c.41,0,.81-.16,1.1-.46.29-.29.46-.69.46-1.1v-15.89c0-.41-.16-.81-.46-1.1-.29-.29-.69-.46-1.1-.46h-15.89Zm44.76,22.11h-15.89c-1.24,0-2.42-.49-3.3-1.37-.87-.87-1.37-2.06-1.37-3.3v-15.89c0-1.24.49-2.42,1.37-3.3.87-.87,2.06-1.37,3.3-1.37h15.89c2.58,0,4.66,2.09,4.66,4.66v15.89c0,2.58-2.09,4.66-4.66,4.66h0Zm-15.89-22.11c-.86,0-1.55.7-1.55,1.55v15.89c0,.86.7,1.55,1.55,1.55h15.89c.86,0,1.55-.7,1.55-1.55v-15.89c0-.86-.7-1.55-1.55-1.55h-15.89Zm15.89,50.42h-15.89c-1.24,0-2.42-.49-3.3-1.37-.87-.87-1.37-2.06-1.37-3.3v-15.89c0-1.24.49-2.42,1.37-3.3.87-.87,2.06-1.37,3.3-1.37h15.89c2.58,0,4.66,2.09,4.66,4.66v15.89c0,2.58-2.09,4.66-4.66,4.66h0Zm-15.89-22.11c-.86,0-1.55.7-1.55,1.55v15.89c0,.86.7,1.55,1.55,1.55h15.89c.86,0,1.55-.7,1.55-1.55v-15.89c0-.86-.7-1.55-1.55-1.55h-15.89Zm-12.98,22.33h-15.89c-2.58,0-4.66-2.09-4.66-4.66v-15.89c0-2.58,2.09-4.66,4.66-4.66h15.89c2.58,0,4.66,2.09,4.66,4.66v15.89c0,2.58-2.09,4.66-4.66,4.66h0Zm-15.89-22.11c-.86,0-1.55.7-1.55,1.55v15.89c0,.86.7,1.55,1.55,1.55h15.89c.86,0,1.55-.7,1.55-1.55v-15.89c0-.86-.7-1.55-1.55-1.55h-15.89Zm0,0"></path>
  </g>
</svg>