<svg id="_图层_1" data-name="图层 1" xmlns="http://www.w3.org/2000/svg" viewBox="0 0 187.8 175.4"><defs><clipPath id="clippath"><path style="fill:none" d="M50.33 50.91h77.89v78.1H50.33z"/></clipPath></defs><circle cx="89.28" cy="89.96" r="85.44" style="fill:#fff"/><g style="clip-path:url(#clippath)"><path d="M125.23 107.98 111 93.75l14.54-14.54c3.56-3.57 3.56-9.36 0-12.93l-12.6-12.6c-1.73-1.73-4.02-2.68-6.46-2.68s-4.74.95-6.46 2.68L85.48 68.22 72.62 55.36c-2.4-2.39-5.58-3.72-8.97-3.72s-6.57 1.32-8.97 3.72c-2.4 2.39-3.72 5.58-3.72 8.97s1.32 6.57 3.72 8.97l12.86 12.86L53 100.7c-3.56 3.57-3.56 9.36 0 12.93l12.6 12.6c1.73 1.73 4.02 2.68 6.46 2.68s4.74-.95 6.46-2.68l14.54-14.54 14.25 14.25 15.76 1.89a3.736 3.736 0 0 0 3.15-1.11c.83-.84 1.22-2 1.06-3.17l-2.06-15.56ZM59.07 68.9c-1.22-1.22-1.89-2.84-1.89-4.57s.67-3.35 1.9-4.57c2.44-2.44 6.7-2.44 9.14 0l12.86 12.86-9.14 9.14L59.08 68.9Zm15.05 52.93c-1.1 1.11-3.03 1.11-4.13 0l-12.6-12.6a2.921 2.921 0 0 1 0-4.13l9.82-9.82c.14.47.36.92.73 1.29l5.47 5.47a3.12 3.12 0 0 0 4.4 0 3.12 3.12 0 0 0 0-4.4l-5.47-5.47c-.37-.37-.82-.59-1.29-.73l7.93-7.93c.14.47.36.92.73 1.29l8.53 8.53a3.12 3.12 0 0 0 4.4 0 3.12 3.12 0 0 0 0-4.4l-8.53-8.53c-.37-.37-.82-.59-1.29-.73l7.93-7.93c.14.47.36.92.73 1.29l5.47 5.47a3.12 3.12 0 0 0 4.4 0 3.12 3.12 0 0 0 0-4.4l-5.47-5.47c-.37-.37-.82-.59-1.29-.73l9.82-9.82a2.921 2.921 0 0 1 4.14 0l12.6 12.6a2.921 2.921 0 0 1 0 4.13l-47.02 47.02Zm36.07-1.82-12.73-12.73 9.14-9.14 12.74 12.74 1.37 10.39-10.53-1.26Zm0 0" style="fill:#e60012"/></g></svg>