<?xml version="1.0" encoding="UTF-8"?>
<svg id="_图层_1" data-name="图层 1" xmlns="http://www.w3.org/2000/svg" xmlns:xlink="http://www.w3.org/1999/xlink" viewBox="0 0 187.8 175.4">
  <defs>
    <style>.cls-1 {
  fill: #fff;
}

.cls-2 {
  clip-path: url("#clippath");
}

.cls-3 {
  fill: none;
}

.cls-4 {
  fill: #e60012;
}

</style>
    <clipPath id="clippath">
      <rect class="cls-3" x="50.33" y="50.91" width="77.89" height="78.1"></rect>
    </clipPath>
  </defs>
  <circle class="cls-1" cx="89.28" cy="89.96" r="85.44"></circle>
  <g class="cls-2">
    <path class="cls-4" d="m125.23,107.98l-14.23-14.23,14.54-14.54h0c3.56-3.57,3.56-9.36,0-12.93l-12.6-12.6c-1.73-1.73-4.02-2.68-6.46-2.68s-4.74.95-6.46,2.68l-14.54,14.54-12.86-12.86c-2.4-2.39-5.58-3.72-8.97-3.72s-6.57,1.32-8.97,3.72c-2.4,2.39-3.72,5.58-3.72,8.97s1.32,6.57,3.72,8.97l12.86,12.86-14.54,14.54c-3.56,3.57-3.56,9.36,0,12.93l12.6,12.6c1.73,1.73,4.02,2.68,6.46,2.68s4.74-.95,6.46-2.68l14.54-14.54,14.25,14.25,15.76,1.89c.15.02.3.03.45.03,1.02,0,1.98-.4,2.7-1.14.83-.84,1.22-2,1.06-3.17l-2.06-15.56Zm-66.16-39.08c-1.22-1.22-1.89-2.84-1.89-4.57s.67-3.35,1.9-4.57c2.44-2.44,6.7-2.44,9.14,0l12.86,12.86-9.14,9.14-12.86-12.86Zm15.05,52.93c-1.1,1.11-3.03,1.11-4.13,0l-12.6-12.6c-1.14-1.14-1.14-2.99,0-4.13l9.82-9.82c.14.47.36.92.73,1.29l5.47,5.47c1.21,1.21,3.18,1.21,4.4,0,1.21-1.22,1.21-3.18,0-4.4l-5.47-5.47c-.37-.37-.82-.59-1.29-.73l7.93-7.93c.14.47.36.92.73,1.29l8.53,8.53c1.21,1.21,3.18,1.21,4.4,0,1.21-1.21,1.21-3.18,0-4.4l-8.53-8.53c-.37-.37-.82-.59-1.29-.73l7.93-7.93c.14.47.36.92.73,1.29l5.47,5.47c1.21,1.21,3.18,1.21,4.4,0,1.21-1.21,1.21-3.18,0-4.4l-5.47-5.47c-.37-.37-.82-.59-1.29-.73l9.82-9.82c.55-.55,1.29-.86,2.07-.86s1.51.3,2.07.86l12.6,12.6c1.14,1.14,1.14,2.99,0,4.13l-47.02,47.02Zm36.07-1.82l-12.73-12.73,9.14-9.14,12.74,12.74,1.37,10.39-10.53-1.26Zm0,0"></path>
  </g>
</svg>