<?xml version="1.0" encoding="UTF-8"?>
<svg id="_图层_1" data-name="图层 1" xmlns="http://www.w3.org/2000/svg" xmlns:xlink="http://www.w3.org/1999/xlink" viewBox="0 0 186.83 184.43">
  <defs>
    <style>.cls-1 {
  fill: #fff;
}

.cls-2 {
  clip-path: url("#clippath");
}

.cls-3 {
  fill: none;
}

.cls-4 {
  fill: #e60012;
}

</style>
    <clipPath id="clippath">
      <rect class="cls-3" x="53.36" y="53.28" width="73.28" height="73.36"></rect>
    </clipPath>
  </defs>
  <circle class="cls-1" cx="90.01" cy="89.96" r="85.44"></circle>
  <g>
    <g class="cls-2">
      <path class="cls-4" d="m89.97,95.05c-11.52,0-20.87-9.34-20.87-20.87s9.34-20.87,20.87-20.87,20.87,9.34,20.87,20.87c-.01,11.52-9.35,20.85-20.87,20.87h0Zm0-37.79c-9.35,0-16.93,7.58-16.93,16.93s7.58,16.93,16.93,16.93,16.93-7.58,16.93-16.93c0-9.35-7.58-16.92-16.93-16.93h0Zm0,0"></path>
      <path class="cls-4" d="m55.32,126.55c-.52,0-1.02-.21-1.39-.58-.37-.37-.58-.87-.58-1.39,0-18.45,16.42-33.46,36.61-33.46,7.19-.03,14.25,1.93,20.4,5.67.93.57,1.22,1.78.65,2.71-.57.93-1.78,1.22-2.71.65-5.52-3.36-11.87-5.12-18.34-5.09-18.02,0-32.68,13.24-32.68,29.53,0,1.09-.88,1.97-1.97,1.97h0Zm69.29,0h-15.75c-.52,0-1.02-.21-1.39-.58-.37-.37-.58-.87-.58-1.39v-15.75c0-.52.21-1.02.58-1.39.37-.37.87-.58,1.39-.58h15.75c.52,0,1.02.21,1.39.58.37.37.58.87.58,1.39v15.75c0,.52-.21,1.02-.58,1.39-.37.37-.87.58-1.39.58h0Zm-13.78-3.94h11.81v-11.81h-11.81v11.81Zm0,0"></path>
    </g>
    <path class="cls-4" d="m108.86,120.25h-9.45c-1.09,0-1.97-.88-1.97-1.97v-15.75c0-1.09.88-1.97,1.97-1.97h15.75c.52,0,1.02.21,1.39.58.37.37.58.87.58,1.39v6.3c0,1.09-.88,1.97-1.97,1.97s-1.97-.88-1.97-1.97v-4.33h-11.81v11.81h7.48c1.09,0,1.97.88,1.97,1.97s-.88,1.97-1.97,1.97h0Zm0,0"></path>
  </g>
</svg>