<?xml version="1.0" encoding="UTF-8"?>
<svg id="_图层_1" data-name="图层 1" xmlns="http://www.w3.org/2000/svg" xmlns:xlink="http://www.w3.org/1999/xlink" viewBox="0 0 195.78 179.95">
  <defs>
    <style>.cls-1 {
  fill: #fff;
}

.cls-2 {
  clip-path: url("#clippath");
}

.cls-3 {
  fill: none;
}

.cls-4 {
  fill: #e60012;
}

</style>
    <clipPath id="clippath">
      <rect class="cls-3" x="57.51" y="56.63" width="81.28" height="69.7"></rect>
    </clipPath>
  </defs>
  <circle class="cls-1" cx="98.15" cy="91.48" r="85.44"></circle>
  <path class="cls-1" d="m106.09,91.48c0,2.83,1.51,5.44,3.96,6.86,2.45,1.41,5.47,1.41,7.92,0,2.45-1.41,3.96-4.03,3.96-6.86s-1.51-5.44-3.96-6.86c-2.45-1.41-5.47-1.41-7.92,0-2.45,1.41-3.96,4.03-3.96,6.86h0Zm0,0"></path>
  <path class="cls-1" d="m72.92,91.48c0,4.37,3.55,7.92,7.92,7.92s7.92-3.55,7.92-7.92-3.55-7.92-7.92-7.92-7.92,3.55-7.92,7.92h0Zm0,0"></path>
  <g>
    <g class="cls-2">
      <path class="cls-4" d="m88.49,96.58h-14.21c-2.24,0-4.06-1.82-4.06-4.06s1.82-4.06,4.06-4.06h10.15v-8.04c0-2.24,1.82-4.06,4.06-4.06s4.06,1.82,4.06,4.06v12.11c0,2.23-1.81,4.05-4.05,4.05h0Zm18.28,21.72h-17.33c-2.24,0-4.06-1.82-4.06-4.06s1.82-4.06,4.06-4.06h17.33c2.24,0,4.06,1.82,4.06,4.06s-1.82,4.06-4.06,4.06h0Zm0,0"></path>
      <path class="cls-4" d="m127.39,118.3h-4.78c-2.24,0-4.06-1.82-4.06-4.06s1.82-4.06,4.06-4.06h4.78c1.79,0,3.25-1.46,3.25-3.25v-38.9c0-1.79-1.46-3.25-3.25-3.25h-34.84v5.3c0,2.24-1.82,4.06-4.06,4.06h-12.36l-10.54,13.94.05,18.84c0,1.79,1.46,3.25,3.25,3.25h4.71c2.24,0,4.06,1.82,4.06,4.06s-1.82,4.06-4.06,4.06h-4.71c-6.28,0-11.38-5.1-11.38-11.37v-18.97c0-1.72.56-3.42,1.6-4.77l10.62-14.05c1.44-1.94,3.81-3.12,6.29-3.12h8.41v-1.48c0-4.35,3.53-7.88,7.88-7.88h35.09c6.28,0,11.38,5.1,11.38,11.37v38.9c0,6.27-5.1,11.37-11.38,11.37h0Zm-51.17-44.3s0,0,0,0h0Zm0,0"></path>
    </g>
    <path class="cls-4" d="m114.69,126.23c-6.61,0-11.99-5.38-11.99-11.99s5.38-11.98,11.99-11.98,11.99,5.38,11.99,11.98-5.38,11.99-11.99,11.99h0Zm0-15.85c-2.13,0-3.86,1.73-3.86,3.86s1.73,3.86,3.86,3.86,3.86-1.73,3.86-3.86-1.73-3.86-3.86-3.86h0Zm-33.17,15.85c-6.61,0-11.99-5.38-11.99-11.99s5.38-11.98,11.99-11.98,11.99,5.38,11.99,11.98c0,6.61-5.38,11.99-11.99,11.99h0Zm0-15.85c-2.13,0-3.86,1.73-3.86,3.86s1.73,3.86,3.86,3.86,3.86-1.73,3.86-3.86-1.74-3.86-3.86-3.86h0Zm0,0"></path>
  </g>
</svg>