<svg id="_图层_1" data-name="图层 1" xmlns="http://www.w3.org/2000/svg" viewBox="0 0 178.53 179.95"><defs><clipPath id="clippath"><path style="fill:none" d="M51.33 47.01h73.82v88.94H51.33z"/></clipPath><style>.cls-4{fill:#e60012}</style></defs><circle cx="88.24" cy="91.48" r="85.44" style="fill:#fff"/><path class="cls-4" d="M122.51 60.09c-.34 0-8.9-.24-17.72-3.85-8.39-3.4-13.96-7.24-15.03-8l-1.63-1.2-1.49 1.21c-1.19.84-6.73 4.62-15.01 7.99-5.13 2.08-11.32 3.44-17.44 3.83l-2.88.13v37.18c0 8.3 4.98 17.85 13.68 26.2 7.82 7.46 16.93 12.28 23.21 12.28s15.4-4.82 23.22-12.28c8.69-8.29 13.68-17.84 13.68-26.2V60.09h-2.6ZM69.5 115.28c.2-2.05.31-3.58.31-5.99V94.75c0-1.69 0-2.66.1-5.63-1.28 2.1-2.1 3.23-3.94 5.17-.97-3.12-1.23-3.84-2.46-6.2 3.79-3.74 6.55-8.04 8.65-13.57.97-2.56 1.69-5.17 1.95-6.96l5.73 1.84q-.31.72-.77 2.3c-1.08 3.48-2.05 5.79-3.94 9.52v28.11c0 2.2.05 3.89.26 5.94H69.5Zm39.99-2.76c-3.64-2.46-4.71-3.28-6.5-4.86-2.61-2.3-4.04-3.99-6.14-7.27.1 1.49.15 4.05.15 5.38v4.86c0 1.64.1 3.12.31 4.71h-6.04c.2-1.64.31-3.07.31-4.76v-4.81c0-.56.05-2.36.1-5.43-2.05 3.43-3.53 5.22-6.55 7.94-2.3 2.05-3.84 3.17-6.14 4.56-1.28-2.51-1.59-2.97-3.48-5.07 3.33-1.74 5.99-3.58 8.81-6.14 2-1.79 3.12-3.02 4.92-5.43h-6.09c-2 0-3.94.1-5.58.31v-5.68c1.64.15 3.28.26 5.58.26h8.45v-4.2h-5.43c-2.25 0-3.84.05-5.22.2.15-1.54.2-2.82.2-4.97v-7.48c0-1.95-.05-3.17-.2-4.66 1.49.2 2.92.26 5.68.26h16.33c2.46 0 4.15-.05 5.63-.26-.15 1.59-.2 2.61-.2 4.97v7.27c0 2.15.05 3.38.2 4.81q-.56-.05-1.48-.05c-.2 0-.61 0-1.13-.05-.97-.05-1.79-.05-2.46-.05h-6.5v4.2h8.96c1.89 0 3.89-.1 5.58-.31v5.73c-1.89-.21-3.84-.31-5.43-.31h-6.86c2.2 2.71 3.23 3.74 5.48 5.63 2.82 2.3 4.97 3.69 8.19 5.22-1.49 1.95-2.25 3.12-3.43 5.48Zm0 0" style="clip-path:url(#clippath)"/><path class="cls-4" d="M86.5 75.24h16.38v6.6H86.5z"/></svg>