<?xml version="1.0" encoding="UTF-8"?>
<svg id="_图层_1" data-name="图层 1" xmlns="http://www.w3.org/2000/svg" viewBox="0 0 190.22 185.96">
  <defs>
    <style>.cls-1 {
  fill: #fff;
}

.cls-2 {
  fill: #e60012;
}

</style>
  </defs>
  <circle class="cls-1" cx="93.72" cy="91.48" r="85.44"></circle>
  <g>
    <path class="cls-2" d="m116.74,124.54c-2.09,0-4.6-.84-5.86-2.51l-12.55-12.55h-.42c-1.67.42-3.35.84-5.02.84-1.26,0-2.51,0-3.77-.42-3.35-.84-6.28-2.51-8.79-5.02-4.18-4.18-6.28-10.46-5.02-16.74.42-1.67,1.67-2.93,2.93-3.35h1.26c1.26,0,2.09.42,2.93,1.26l4.18,4.18c.42.84,1.26,1.26,2.09,1.26s1.67-.42,2.09-.84c1.26-1.26,1.26-3.35,0-4.6l-4.6-4.18c-.84-1.26-1.26-2.93-.84-4.6.42-1.67,1.67-2.51,3.35-2.93,1.26-.42,2.51-.42,3.77-.42,5.02,0,9.62,2.09,12.97,5.44,2.51,2.51,4.18,5.44,5.02,8.79.84,2.93.42,6.28-.42,8.79v.42l12.55,12.55c1.67,1.67,2.51,3.77,2.51,5.86s-.84,4.6-2.51,5.86c-1.67,2.09-3.77,2.93-5.86,2.93h0Zm-18.41-20.51c1.26,0,2.51.42,2.93,1.26l12.97,12.97c.42.42,1.26.84,2.09.84s1.67-.42,2.09-.84c.42-.42.84-1.26.84-2.09s-.42-1.67-.84-2.09l-12.55-12.97c-1.26-1.26-1.67-2.93-1.26-4.6.84-2.09.84-4.6.42-7.11-.42-2.51-1.67-4.6-3.35-6.28-2.51-2.51-5.44-3.77-8.37-3.77h-1.67l3.35,3.35c1.67,1.67,2.51,3.77,2.51,5.86s-.84,4.6-2.51,5.86c-1.67,1.67-4.18,2.51-6.28,2.51s-4.6-.84-5.86-2.51l-3.35-3.35v1.67c0,3.35,1.67,6.28,3.77,8.37,1.67,1.67,4.18,2.93,6.28,3.77.84,0,1.67.42,2.93.42s2.93-.42,4.18-.84c.42-.42.84-.42,1.67-.42h0Zm0,0"></path>
    <path class="cls-2" d="m72.8,124.54c-3.35,0-10.46-2.09-10.46-9.21v-44.78c0-8.37,5.44-12.55,10.46-12.55h36.41c6.28,0,10.46,4.18,10.46,10.88v15.07c0,1.26-.84,2.93-2.51,2.93-2.09-.42-2.93-1.26-2.93-2.51v-14.23c0-4.6-4.18-6.28-5.86-6.28h-35.57c-2.09,0-5.44,2.51-5.44,7.95v41.85c0,6.28,4.18,6.28,5.86,6.28h12.55c1.67-.42,2.51,1.26,2.51,2.51s-.84,2.51-2.93,2.51h-12.55v-.42Zm0,0"></path>
  </g>
</svg>