<?xml version="1.0" encoding="UTF-8"?>
<svg id="_图层_1" data-name="图层 1" xmlns="http://www.w3.org/2000/svg" viewBox="0 0 132 69.5">
  <rect class="cls-1" x="28.2" y="4.24" width="1.99" height="61.01"></rect>
  <rect class="cls-1" x="65.55" y="42.87" width="29.48" height="6.74"></rect>
  <rect class="cls-1" x="62.66" y="10.36" width="32.38" height="6.74"></rect>
  <path class="cls-1" d="m67.39,9.33v-1.99h31.62v1.99h-31.62Zm-1.84,1.03h29.48v6.74h-29.48v-6.74Zm0,0"></path>
  <path class="cls-1" d="m90.85,13.93l3.33,3.19-5.71,1.38-3.37-1.63,5.75-2.94ZM30.19,4.24h1.99v61.01h-1.99V4.24Zm64.84,0h1.99v61.01h-1.99V4.24Zm0,0"></path>
  <path class="cls-1" d="m97.02,18.1l-1.99-1.6V4.24h1.99v13.86Zm0,0"></path>
  <path class="cls-1" d="m98.12,10.93l.72,3.01-1.19,1.32-2.69-1.52,3.16-2.81Zm0-4.33l.72,3.01-1.19,1.31-2.69-1.52,3.16-2.8Zm0,0"></path>
  <rect class="cls-1" x="97.02" y="4.24" width="1.99" height="61.01"></rect>
  <path class="cls-1" d="m78.5,13.75h-15.85l3.8,2.36c.42.26.91.4,1.4.4h16.03c-2.13,0-4.14-1.03-5.39-2.76h0Zm0,0"></path>
  <path class="cls-1" d="m82.22,8.27h-11.24c-1.7,0-3.34.66-4.56,1.84l-3.77,3.64h15.85l1.68-3.64c.55-1.18,1.28-1.84,2.04-1.84h0Zm0,0"></path>
  <path class="cls-1" d="m88.57,10.57c-1.25-1.46-3.07-2.29-4.99-2.29h-1.36c-.76,0-1.49.66-2.03,1.84l-1.68,3.64h12.79l-2.73-3.18Zm0,0"></path>
  <path class="cls-1" d="m78.5,13.75c1.25,1.73,3.25,2.76,5.39,2.76h2.82c.57,0,1.13-.18,1.58-.53l3-2.24h-12.79Zm0,0"></path>
  <rect class="cls-1" x="58.71" y="4.24" width="1.99" height="61.01"></rect>
  <rect class="cls-1" x="60.7" y="4.24" width="1.99" height="61.01"></rect>
  <path class="cls-1" d="m62.68,65.25h-1.99V29.58l-1.99-3.66h3.97v39.34Zm0,0"></path>
  <path class="cls-1" d="m62.68,53.07h-1.99V17.39l-1.99-3.66h3.97v39.34Zm0,0"></path>
  <path class="cls-1" d="m62.68,48.68h-1.99V13l-1.99-3.67h3.97v39.35Zm0,16.58h-1.99v-2.92l-1.99-3.66h3.97v6.58Zm0,0"></path>
  <path class="cls-1" d="m31.5,9.33v-1.99h32.67v1.99H31.5Zm0,4.4v-1.99h32.67v1.99H31.5Zm29.74,29.14h4.31v8.37h-4.31v-8.37Zm0,0"></path>
  <rect class="cls-1" x="67.4" y="28.58" width="7.96" height="1.99"></rect>
  <path class="cls-1" d="m77.35,9.46v-1.99h19.67v1.99h-19.67Zm0,4.27v-1.99h19.67v1.99h-19.67Zm0,0"></path>
  <path class="cls-1" d="m77.97,46.94h-15.85l3.8,2.36c.42.26.91.4,1.4.4h16.03c-2.14,0-4.14-1.03-5.39-2.76h0Zm0,0"></path>
  <path class="cls-1" d="m81.69,41.46h-11.24c-1.7,0-3.34.66-4.56,1.84l-3.77,3.64h15.85l1.68-3.64c.55-1.18,1.28-1.84,2.04-1.84h0Zm0,0"></path>
  <path class="cls-1" d="m88.04,43.76c-1.25-1.46-3.07-2.29-4.99-2.3h-1.36c-.76,0-1.49.66-2.03,1.84l-1.68,3.64h12.79l-2.73-3.18Zm0,0"></path>
  <path class="cls-1" d="m77.97,46.94c1.25,1.73,3.25,2.76,5.39,2.76h2.82c.57,0,1.13-.18,1.58-.53l3-2.24h-12.79Zm0,0"></path>
  <path class="cls-1" d="m67.4,38.34v-1.99h7.96v1.99h-7.96Zm0,7.56v-1.99h7.96v1.99h-7.96Zm0,0"></path>
  <rect class="cls-1" x="31.5" y="21.92" width="32.67" height="3.99"></rect>
  <rect class="cls-1" x="67.54" y="21.92" width="29.29" height="3.99"></rect>
  <rect class="cls-1" x="31.5" y="54.68" width="32.67" height="3.99"></rect>
  <rect class="cls-1" x="67.54" y="54.68" width="29.29" height="3.99"></rect>
  <path class="cls-1" d="m33.3,16.5h30.27v5.42h-31.39v-4.29c0-.3.12-.59.33-.8.21-.21.5-.33.8-.33h0Zm0,0"></path>
  <path class="cls-1" d="m34.19,16.5h29.38v5.42h-30.49v-4.31c0-.61.5-1.11,1.11-1.11h0Zm0,0"></path>
  <path class="cls-1" d="m33.3,49.26h30.27v5.42h-31.39v-4.3c0-.62.5-1.13,1.13-1.13h0Zm0,0"></path>
  <path class="cls-1" d="m34.19,49.26h29.38v5.42h-30.49v-4.31c0-.61.5-1.11,1.11-1.11h0Zm33.35-33.04h27.78c.3,0,.58.12.79.33.21.21.33.5.33.79v4.3h-28.91v-5.42Zm0,0"></path>
  <path class="cls-1" d="m67.54,16.5h27.78c.3,0,.58.12.79.33.21.21.33.5.33.79v4.3h-28.91v-5.42Zm0,0"></path>
  <path class="cls-1" d="m67.54,48.98h27.78c.3,0,.58.12.79.33.21.21.33.5.33.79v4.3h-28.91v-5.42Zm0,0"></path>
  <path class="cls-1" d="m67.54,49.26h27.78c.3,0,.58.12.79.33.21.21.33.5.33.79v4.3h-28.91v-5.42Zm0,0"></path>
  <rect class="cls-1" x="75.36" y="4.24" width="1.99" height="54.43"></rect>
  <rect class="cls-1" x="63.57" y="4.24" width="1.99" height="61.01"></rect>
  <rect class="cls-1" x="65.55" y="4.24" width="1.99" height="61.01"></rect>
</svg>