<svg id="_图层_1" data-name="图层 1" xmlns="http://www.w3.org/2000/svg" viewBox="0 0 132 69.5"><path class="cls-1" d="M28.2 4.24h1.99v61.01H28.2zM65.55 42.87h29.48v6.74H65.55zM62.66 10.36h32.38v6.74H62.66z"/><path class="cls-1" d="M67.39 9.33V7.34h31.62v1.99H67.39Zm-1.84 1.03h29.48v6.74H65.55v-6.74Zm0 0"/><path class="cls-1" d="m90.85 13.93 3.33 3.19-5.71 1.38-3.37-1.63 5.75-2.94ZM30.19 4.24h1.99v61.01h-1.99V4.24Zm64.84 0h1.99v61.01h-1.99V4.24Zm0 0"/><path class="cls-1" d="m97.02 18.1-1.99-1.6V4.24h1.99V18.1Zm0 0"/><path class="cls-1" d="m98.12 10.93.72 3.01-1.19 1.32-2.69-1.52 3.16-2.81Zm0-4.33.72 3.01-1.19 1.31-2.69-1.52 3.16-2.8Zm0 0"/><path class="cls-1" d="M97.02 4.24h1.99v61.01h-1.99zM78.5 13.75H62.65l3.8 2.36c.42.26.91.4 1.4.4h16.03c-2.13 0-4.14-1.03-5.39-2.76Zm0 0"/><path class="cls-1" d="M82.22 8.27H70.98c-1.7 0-3.34.66-4.56 1.84l-3.77 3.64H78.5l1.68-3.64c.55-1.18 1.28-1.84 2.04-1.84Zm0 0"/><path class="cls-1" d="M88.57 10.57a6.556 6.556 0 0 0-4.99-2.29h-1.36c-.76 0-1.49.66-2.03 1.84l-1.68 3.64H91.3l-2.73-3.18Zm0 0"/><path class="cls-1" d="M78.5 13.75a6.648 6.648 0 0 0 5.39 2.76h2.82c.57 0 1.13-.18 1.58-.53l3-2.24H78.5ZM58.71 4.24h1.99v61.01h-1.99zM60.7 4.24h1.99v61.01H60.7z"/><path class="cls-1" d="M62.68 65.25h-1.99V29.58l-1.99-3.66h3.97v39.34Zm0 0"/><path class="cls-1" d="M62.68 53.07h-1.99V17.39l-1.99-3.66h3.97v39.34Zm0 0"/><path class="cls-1" d="M62.68 48.68h-1.99V13L58.7 9.33h3.97v39.35Zm0 16.58h-1.99v-2.92l-1.99-3.66h3.97v6.58Zm0 0"/><path class="cls-1" d="M31.5 9.33V7.34h32.67v1.99H31.5Zm0 4.4v-1.99h32.67v1.99H31.5Zm29.74 29.14h4.31v8.37h-4.31v-8.37ZM67.4 28.58h7.96v1.99H67.4zM77.35 9.46V7.47h19.67v1.99H77.35Zm0 4.27v-1.99h19.67v1.99H77.35Zm0 0"/><path class="cls-1" d="M77.97 46.94H62.12l3.8 2.36c.42.26.91.4 1.4.4h16.03c-2.14 0-4.14-1.03-5.39-2.76Zm0 0"/><path class="cls-1" d="M81.69 41.46H70.45c-1.7 0-3.34.66-4.56 1.84l-3.77 3.64h15.85l1.68-3.64c.55-1.18 1.28-1.84 2.04-1.84Zm0 0"/><path class="cls-1" d="M88.04 43.76a6.6 6.6 0 0 0-4.99-2.3h-1.36c-.76 0-1.49.66-2.03 1.84l-1.68 3.64h12.79l-2.73-3.18Zm0 0"/><path class="cls-1" d="M77.97 46.94a6.648 6.648 0 0 0 5.39 2.76h2.82c.57 0 1.13-.18 1.58-.53l3-2.24H77.97ZM67.4 38.34v-1.99h7.96v1.99H67.4Zm0 7.56v-1.99h7.96v1.99H67.4ZM31.5 21.92h32.67v3.99H31.5zM67.54 21.92h29.29v3.99H67.54zM31.5 54.68h32.67v3.99H31.5zM67.54 54.68h29.29v3.99H67.54zM33.3 16.5h30.27v5.42H32.18v-4.29c0-.3.12-.59.33-.8.21-.21.5-.33.8-.33Zm0 0"/><path class="cls-1" d="M34.19 16.5h29.38v5.42H33.08v-4.31c0-.61.5-1.11 1.11-1.11ZM33.3 49.26h30.27v5.42H32.18v-4.3c0-.62.5-1.13 1.13-1.13Zm0 0"/><path class="cls-1" d="M34.19 49.26h29.38v5.42H33.08v-4.31c0-.61.5-1.11 1.11-1.11Zm33.35-33.04h27.78a1.13 1.13 0 0 1 1.12 1.12v4.3H67.53v-5.42Zm0 0"/><path class="cls-1" d="M67.54 16.5h27.78a1.13 1.13 0 0 1 1.12 1.12v4.3H67.53V16.5ZM67.54 48.98h27.78a1.13 1.13 0 0 1 1.12 1.12v4.3H67.53v-5.42Zm0 0"/><path class="cls-1" d="M67.54 49.26h27.78a1.13 1.13 0 0 1 1.12 1.12v4.3H67.53v-5.42Zm0 0"/><path class="cls-1" d="M75.36 4.24h1.99v54.43h-1.99zM63.57 4.24h1.99v61.01h-1.99z"/><path class="cls-1" d="M65.55 4.24h1.99v61.01h-1.99z"/></svg>