<?xml version="1.0" encoding="UTF-8"?>
<svg id="_图层_1" data-name="图层 1" xmlns="http://www.w3.org/2000/svg" xmlns:xlink="http://www.w3.org/1999/xlink" viewBox="0 0 104 69.5">
  <defs>
    <style>.cls-1 {
  fill: #070001;
}

.cls-2 {
  clip-path: url("#clippath");
}

.cls-3 {
  fill: none;
}

</style>
    <clipPath id="clippath">
      <rect class="cls-3" x="10.29" y="2.61" width="78.39" height="64.28"></rect>
    </clipPath>
  </defs>
  <g class="cls-2">
    <path class="cls-1" d="m88.25,46.29l-4.31-16.93c-.67-2.64-3.05-4.49-5.77-4.48h-.4V8.58c0-3.29-2.67-5.95-5.95-5.95H27.14c-3.29,0-5.95,2.67-5.95,5.95v16.23h-.38c-2.73,0-5.11,1.86-5.77,4.51l-4.6,18.5c-.1.37-.14.75-.14,1.13v11.91c0,3.29,2.67,5.95,5.95,5.95h66.48c3.29,0,5.95-2.67,5.95-5.95v-11.05c0-1.18-.16-2.36-.44-3.51h0ZM31.31,17.52l13.69-.14v7.09h-13.59l-.1-6.95Zm22.64,0l13.67-.14v7.09h-13.67v-6.95h0Zm-28.8-8.93c0-1.1.89-1.98,1.99-1.98h44.67c.53,0,1.03.21,1.4.58.37.37.58.88.58,1.4v15.88h-2.3v-7.09c-.01-2.11-1.72-3.82-3.83-3.83h-13.71c-1.04-.03-2.04.36-2.79,1.08-.75.72-1.17,1.71-1.18,2.75v7.09h-1.03v-7.09c-.01-2.11-1.72-3.82-3.83-3.83h-13.89c-2.08.05-3.74,1.75-3.75,3.83v7.09h-2.32v-15.88Zm-6.27,21.69c.23-.9,1.06-1.52,1.99-1.49h57.3c.93-.03,1.75.59,1.98,1.49l4.31,16.93s0,.09,0,.14H14.64l4.25-17.06h0Zm63.85,32.53H16.24c-1.1,0-1.98-.89-1.98-1.98v-9.51h70.45v9.51c0,1.1-.89,1.98-1.98,1.98h0Zm0,0"></path>
  </g>
</svg>