<svg id="_图层_1" data-name="图层 1" xmlns="http://www.w3.org/2000/svg" viewBox="0 0 104 69.5"><defs><clipPath id="clippath"><path style="fill:none" d="M10.29 2.61h78.39v64.28H10.29z"/></clipPath></defs><g style="clip-path:url(#clippath)"><path d="m88.25 46.29-4.31-16.93a5.937 5.937 0 0 0-5.77-4.48h-.4V8.58c0-3.29-2.67-5.95-5.95-5.95H27.14c-3.29 0-5.95 2.67-5.95 5.95v16.23h-.38c-2.73 0-5.11 1.86-5.77 4.51l-4.6 18.5c-.1.37-.14.75-.14 1.13v11.91c0 3.29 2.67 5.95 5.95 5.95h66.48c3.29 0 5.95-2.67 5.95-5.95V49.81c0-1.18-.16-2.36-.44-3.51ZM31.31 17.52 45 17.38v7.09H31.41l-.1-6.95Zm22.64 0 13.67-.14v7.09H53.95v-6.95Zm-28.8-8.93c0-1.1.89-1.98 1.99-1.98h44.67c.53 0 1.03.21 1.4.58.37.37.58.88.58 1.4v15.88h-2.3v-7.09a3.85 3.85 0 0 0-3.83-3.83H53.95a3.861 3.861 0 0 0-3.97 3.83v7.09h-1.03v-7.09a3.85 3.85 0 0 0-3.83-3.83H31.23a3.847 3.847 0 0 0-3.75 3.83v7.09h-2.32V8.59Zm-6.27 21.69c.23-.9 1.06-1.52 1.99-1.49h57.3c.93-.03 1.75.59 1.98 1.49l4.31 16.93v.14H14.64l4.25-17.06Zm63.85 32.53H16.24c-1.1 0-1.98-.89-1.98-1.98v-9.51h70.45v9.51c0 1.1-.89 1.98-1.98 1.98Zm0 0" style="fill:#070001"/></g></svg>