<?xml version="1.0" encoding="UTF-8"?>
<svg id="_图层_1" data-name="图层 1" xmlns="http://www.w3.org/2000/svg" viewBox="0 0 104 88">
  <defs>
    <style>.cls-1 {
  fill: #231815;
}

</style>
  </defs>
  <path class="cls-1" d="m18.17,42.36h2.32v36.6h-2.32v-36.6Zm60.46,0h2.32v36.6h-2.32v-36.6Zm0,0"></path>
  <path class="cls-1" d="m87.32,43.52h-24.79v-2.32h22.47v-3.94h-20.15v-2.32h22.47v8.57Zm-50.73,0H11.8v-8.57h22.47v2.32H14.12v3.94h22.47v2.32Zm0,0"></path>
  <path class="cls-1" d="m61.49,57.88h-23.86c-2.78,0-5.1-2.32-5.1-5.1s2.32-5.1,5.1-5.1h23.86c2.78,0,5.1,2.32,5.1,5.1s-2.32,5.1-5.1,5.1h0Zm-23.86-7.99c-1.51,0-2.78,1.27-2.78,2.78s1.27,2.78,2.78,2.78h23.86c1.51,0,2.78-1.27,2.78-2.78s-1.27-2.78-2.78-2.78h-23.86Zm0,0"></path>
  <path class="cls-1" d="m60.68,49.19l-2.09-.93,3.36-7.3c1.51-3.36,2.32-7.07,2.32-10.77v-11.58c0-3.71-3.01-6.83-6.83-6.83h-15.87c-3.71,0-6.83,3.01-6.83,6.83v11.58c0,3.71.81,7.41,2.32,10.77l3.36,7.3-2.09.93-3.24-7.3c-1.74-3.71-2.55-7.64-2.55-11.7v-11.58c0-4.98,4.05-9.15,9.15-9.15h15.87c4.98,0,9.15,4.05,9.15,9.15v11.58c0,4.05-.81,7.99-2.55,11.7l-3.47,7.3Zm-12.28,7.53h2.32v22.24h-2.32v-22.24Zm0,0"></path>
  <path class="cls-1" d="m61.84,78.96h-2.32v-1.62c0-2.9-2.32-5.21-5.21-5.21h-9.5c-2.9,0-5.21,2.32-5.21,5.21v1.62h-2.32v-1.62c0-4.17,3.36-7.53,7.53-7.53h9.5c4.17,0,7.53,3.36,7.53,7.53v1.62Zm0,0"></path>
</svg>