<svg id="_图层_1" data-name="图层 1" xmlns="http://www.w3.org/2000/svg" viewBox="0 0 104 88"><defs><style>.cls-1{fill:#231815}</style></defs><path class="cls-1" d="M18.17 42.36h2.32v36.6h-2.32v-36.6Zm60.46 0h2.32v36.6h-2.32v-36.6Zm0 0"/><path class="cls-1" d="M87.32 43.52H62.53V41.2H85v-3.94H64.85v-2.32h22.47v8.57Zm-50.73 0H11.8v-8.57h22.47v2.32H14.12v3.94h22.47v2.32ZM61.49 57.88H37.63c-2.78 0-5.1-2.32-5.1-5.1s2.32-5.1 5.1-5.1h23.86c2.78 0 5.1 2.32 5.1 5.1s-2.32 5.1-5.1 5.1Zm-23.86-7.99c-1.51 0-2.78 1.27-2.78 2.78s1.27 2.78 2.78 2.78h23.86c1.51 0 2.78-1.27 2.78-2.78s-1.27-2.78-2.78-2.78H37.63Zm0 0"/><path class="cls-1" d="m60.68 49.19-2.09-.93 3.36-7.3a26.43 26.43 0 0 0 2.32-10.77V18.61c0-3.71-3.01-6.83-6.83-6.83H41.57c-3.71 0-6.83 3.01-6.83 6.83v11.58c0 3.71.81 7.41 2.32 10.77l3.36 7.3-2.09.93-3.24-7.3c-1.74-3.71-2.55-7.64-2.55-11.7V18.61c0-4.98 4.05-9.15 9.15-9.15h15.87c4.98 0 9.15 4.05 9.15 9.15v11.58c0 4.05-.81 7.99-2.55 11.7l-3.47 7.3ZM48.4 56.72h2.32v22.24H48.4V56.72Zm0 0"/><path class="cls-1" d="M61.84 78.96h-2.32v-1.62c0-2.9-2.32-5.21-5.21-5.21h-9.5c-2.9 0-5.21 2.32-5.21 5.21v1.62h-2.32v-1.62c0-4.17 3.36-7.53 7.53-7.53h9.5c4.17 0 7.53 3.36 7.53 7.53v1.62Zm0 0"/></svg>