<svg id="_图层_1" data-name="图层 1" xmlns="http://www.w3.org/2000/svg" viewBox="0 0 81.03 65.94"><defs><clipPath id="clippath"><path style="fill:none" d="M13.64 6.88h54.12v53.85H13.64z"/></clipPath></defs><g style="clip-path:url(#clippath)"><path d="M34.18 32.13H18.29a4.679 4.679 0 0 1-4.67-4.67V11.57c0-2.58 2.09-4.66 4.66-4.66h15.89a4.679 4.679 0 0 1 4.67 4.67v15.89a4.679 4.679 0 0 1-4.67 4.67ZM18.29 10.02c-.41 0-.81.16-1.1.46-.29.29-.46.69-.46 1.1v15.89c0 .41.16.81.46 1.1.29.29.69.46 1.1.46h15.89c.41 0 .81-.16 1.1-.46.29-.29.46-.69.46-1.1V11.58c0-.41-.16-.81-.46-1.1-.29-.29-.69-.46-1.1-.46H18.29Zm44.76 22.11H47.16a4.679 4.679 0 0 1-4.67-4.67V11.57a4.679 4.679 0 0 1 4.67-4.67h15.89c2.58 0 4.66 2.09 4.66 4.66v15.89c0 2.58-2.09 4.66-4.66 4.66ZM47.16 10.02c-.86 0-1.55.7-1.55 1.55v15.89c0 .86.7 1.55 1.55 1.55h15.89c.86 0 1.55-.7 1.55-1.55V11.57c0-.86-.7-1.55-1.55-1.55H47.16Zm15.89 50.42H47.16a4.679 4.679 0 0 1-4.67-4.67V39.88a4.679 4.679 0 0 1 4.67-4.67h15.89c2.58 0 4.66 2.09 4.66 4.66v15.89c0 2.58-2.09 4.66-4.66 4.66ZM47.16 38.33c-.86 0-1.55.7-1.55 1.55v15.89c0 .86.7 1.55 1.55 1.55h15.89c.86 0 1.55-.7 1.55-1.55V39.88c0-.86-.7-1.55-1.55-1.55H47.16ZM34.18 60.66H18.29c-2.58 0-4.66-2.09-4.66-4.66V40.11c0-2.58 2.09-4.66 4.66-4.66h15.89c2.58 0 4.66 2.09 4.66 4.66V56c0 2.58-2.09 4.66-4.66 4.66ZM18.29 38.55c-.86 0-1.55.7-1.55 1.55v15.89c0 .86.7 1.55 1.55 1.55h15.89c.86 0 1.55-.7 1.55-1.55V40.1c0-.86-.7-1.55-1.55-1.55H18.29Zm0 0" style="fill:#231815"/></g></svg>